#Comment line ignore any data following # character 
#Hierarchical Translation and Rotation (.htr) file 
[Header]	
#Header keywords are followed by a single value 
FileType HTR		#Single word string
DataType HTRS		#Translation followed by rotation and scale data
FileVersion 1		#integer
NumSegments 64		#integer
NumFrames 3		#integer
DataFrameRate 30		#integer, data frame rate in this file
EulerRotationOrder ZYX
CalibrationUnits mm
RotationUnits Degrees
GlobalAxisofGravity Y
BoneLengthAxis Y
ScaleFactor 1.00
[SegmentNames&Hierarchy]
#CHILD	PARENT
Pinger_Root GLOBAL
Pelvis Pinger_Root
L_Hip Pelvis
R_Hip Pelvis
Rear_Leg01 Pelvis
Spine1 Pelvis
L_Leg01 L_Hip
L_Leg02 L_Leg01
L_Leg03 L_Leg02
L_Foot L_Leg03
L_Toe1_01 L_Foot
L_Toe2_01 L_Foot
L_Toe3_01 L_Foot
planeAlignerLeft L_Foot
L_Toe1_02 L_Toe1_01
L_Toe1_03 L_Toe1_02
L_Toe2_02 L_Toe2_01
L_Toe2_03 L_Toe2_02
L_Toe3_02 L_Toe3_01
L_Toe3_03 L_Toe3_02
planeLockWeightLeft planeAlignerLeft
R_Leg01 R_Hip
R_Leg02 R_Leg01
R_Leg03 R_Leg02
R_Foot R_Leg03
planeAlignerRight R_Foot
R_Toe1_01 R_Foot
R_Toe2_01 R_Foot
R_Toe3_01 R_Foot
planeLockWeightRight planeAlignerRight
R_Toe1_02 R_Toe1_01
R_Toe1_03 R_Toe1_02
R_Toe2_02 R_Toe2_01
R_Toe2_03 R_Toe2_02
R_Toe3_02 R_Toe3_01
R_Toe3_03 R_Toe3_02
Rear_Leg02 Rear_Leg01
Rear_Leg03 Rear_Leg02
Rear_Leg04 Rear_Leg03
Rear_Foot Rear_Leg04
planeAlignerCenter Rear_Foot
Rear_Toe1_01 Rear_Foot
Rear_Toe2_01 Rear_Foot
Rear_Toe3_01 Rear_Foot
planeLockWeightCenter planeAlignerCenter
Rear_Toe1_02 Rear_Toe1_01
Rear_Toe1_03 Rear_Toe1_02
Rear_Toe2_02 Rear_Toe2_01
Rear_Toe2_03 Rear_Toe2_02
Rear_Toe3_02 Rear_Toe3_01
Rear_Toe3_03 Rear_Toe3_02
Back_Bone Spine1
Head Spine1
Motor_Bone Back_Bone
Ping_Mechanism Back_Bone
BN_LookIK Head
bottomMouth Head
L_Mouth01 Head
L_mouthFront Head
mouthGun Head
R_Mouth01 Head
R_mouthFront Head
TopMouth Head
weapon_bone Head
[BasePosition]
#SegmentName Tx, Ty, Tz, Rx, Ry, Rz, BoneLength
Pinger_Root 0.000000 0.000000 0.000000 -90.000000 0.000000 0.000000 10.000000 
Pelvis 0.000000 0.000000 0.000000 0.000000 0.000000 0.000000 10.000000 
L_Hip 0.000000 0.000000 0.000000 0.000000 0.000000 0.000000 10.000000 
R_Hip 0.000000 0.000000 0.000000 0.000000 0.000000 0.000000 10.000000 
Rear_Leg01 0.000000 0.000000 0.000000 0.000000 0.000000 0.000000 10.000000 
Spine1 0.000000 0.000000 0.000000 0.000000 0.000000 0.000000 10.000000 
L_Leg01 0.000000 0.000000 0.000000 0.000000 0.000000 0.000000 10.000000 
L_Leg02 0.000000 0.000000 0.000000 0.000000 0.000000 0.000000 10.000000 
L_Leg03 0.000000 0.000000 0.000000 0.000000 0.000000 0.000000 10.000000 
L_Foot 0.000000 0.000000 0.000000 0.000000 0.000000 0.000000 10.000000 
L_Toe1_01 0.000000 0.000000 0.000000 0.000000 0.000000 0.000000 10.000000 
L_Toe2_01 0.000000 0.000000 0.000000 0.000000 0.000000 0.000000 10.000000 
L_Toe3_01 0.000000 0.000000 0.000000 0.000000 0.000000 0.000000 10.000000 
planeAlignerLeft 0.000000 0.000000 0.000000 0.000000 0.000000 0.000000 10.000000 
L_Toe1_02 0.000000 0.000000 0.000000 0.000000 0.000000 0.000000 10.000000 
L_Toe1_03 0.000000 0.000000 0.000000 0.000000 0.000000 0.000000 10.000000 
L_Toe2_02 0.000000 0.000000 0.000000 0.000000 0.000000 0.000000 10.000000 
L_Toe2_03 0.000000 0.000000 0.000000 0.000000 0.000000 0.000000 10.000000 
L_Toe3_02 0.000000 0.000000 0.000000 0.000000 0.000000 0.000000 10.000000 
L_Toe3_03 0.000000 0.000000 0.000000 0.000000 0.000000 0.000000 10.000000 
planeLockWeightLeft 0.000000 0.000000 0.000000 0.000000 0.000000 0.000000 10.000000 
R_Leg01 0.000000 0.000000 0.000000 0.000000 0.000000 0.000000 10.000000 
R_Leg02 0.000000 0.000000 0.000000 0.000000 0.000000 0.000000 10.000000 
R_Leg03 0.000000 0.000000 0.000000 0.000000 0.000000 0.000000 10.000000 
R_Foot 0.000000 0.000000 0.000000 0.000000 0.000000 0.000000 10.000000 
planeAlignerRight 0.000000 0.000000 0.000000 0.000000 0.000000 0.000000 10.000000 
R_Toe1_01 0.000000 0.000000 0.000000 0.000000 0.000000 0.000000 10.000000 
R_Toe2_01 0.000000 0.000000 0.000000 0.000000 0.000000 0.000000 10.000000 
R_Toe3_01 0.000000 0.000000 0.000000 0.000000 0.000000 0.000000 10.000000 
planeLockWeightRight 0.000000 0.000000 0.000000 0.000000 0.000000 0.000000 10.000000 
R_Toe1_02 0.000000 0.000000 0.000000 0.000000 0.000000 0.000000 10.000000 
R_Toe1_03 0.000000 0.000000 0.000000 0.000000 0.000000 0.000000 10.000000 
R_Toe2_02 0.000000 0.000000 0.000000 0.000000 0.000000 0.000000 10.000000 
R_Toe2_03 0.000000 0.000000 0.000000 0.000000 0.000000 0.000000 10.000000 
R_Toe3_02 0.000000 0.000000 0.000000 0.000000 0.000000 0.000000 10.000000 
R_Toe3_03 0.000000 0.000000 0.000000 0.000000 0.000000 0.000000 10.000000 
Rear_Leg02 0.000000 0.000000 0.000000 0.000000 0.000000 0.000000 10.000000 
Rear_Leg03 0.000000 0.000000 0.000000 0.000000 0.000000 0.000000 10.000000 
Rear_Leg04 0.000000 0.000000 0.000000 0.000000 0.000000 0.000000 10.000000 
Rear_Foot 0.000000 0.000000 0.000000 0.000000 0.000000 0.000000 10.000000 
planeAlignerCenter 0.000000 0.000000 0.000000 0.000000 0.000000 0.000000 10.000000 
Rear_Toe1_01 0.000000 0.000000 0.000000 0.000000 0.000000 0.000000 10.000000 
Rear_Toe2_01 0.000000 0.000000 0.000000 0.000000 0.000000 0.000000 10.000000 
Rear_Toe3_01 0.000000 0.000000 0.000000 0.000000 0.000000 0.000000 10.000000 
planeLockWeightCenter 0.000000 0.000000 0.000000 0.000000 0.000000 0.000000 10.000000 
Rear_Toe1_02 0.000000 0.000000 0.000000 0.000000 0.000000 0.000000 10.000000 
Rear_Toe1_03 0.000000 0.000000 0.000000 0.000000 0.000000 0.000000 10.000000 
Rear_Toe2_02 0.000000 0.000000 0.000000 0.000000 0.000000 0.000000 10.000000 
Rear_Toe2_03 0.000000 0.000000 0.000000 0.000000 0.000000 0.000000 10.000000 
Rear_Toe3_02 0.000000 0.000000 0.000000 0.000000 0.000000 0.000000 10.000000 
Rear_Toe3_03 0.000000 0.000000 0.000000 0.000000 0.000000 0.000000 10.000000 
Back_Bone 0.000000 0.000000 0.000000 0.000000 0.000000 0.000000 10.000000 
Head 0.000000 0.000000 0.000000 0.000000 0.000000 0.000000 10.000000 
Motor_Bone 0.000000 0.000000 0.000000 0.000000 0.000000 0.000000 10.000000 
Ping_Mechanism 0.000000 0.000000 0.000000 0.000000 0.000000 0.000000 10.000000 
BN_LookIK 0.000000 0.000000 0.000000 0.000000 0.000000 0.000000 10.000000 
bottomMouth 0.000000 0.000000 0.000000 0.000000 0.000000 0.000000 10.000000 
L_Mouth01 0.000000 0.000000 0.000000 0.000000 0.000000 0.000000 10.000000 
L_mouthFront 0.000000 0.000000 0.000000 0.000000 0.000000 0.000000 10.000000 
mouthGun 0.000000 0.000000 0.000000 0.000000 0.000000 0.000000 10.000000 
R_Mouth01 0.000000 0.000000 0.000000 0.000000 0.000000 0.000000 10.000000 
R_mouthFront 0.000000 0.000000 0.000000 0.000000 0.000000 0.000000 10.000000 
TopMouth 0.000000 0.000000 0.000000 0.000000 0.000000 0.000000 10.000000 
weapon_bone 0.000000 0.000000 0.000000 0.000000 0.000000 0.000000 10.000000 
#Beginning of Data. Separated by tabs
#Fr	Tx	Ty	Tz	Rx	Ry	Rz	SF
[Pinger_Root]
57 0.000000 0.000000 0.000000 -0.000075 -0.000009 -13.713800 0.000000
58 0.000000 0.000000 0.000000 -0.000074 -0.000010 -15.909529 0.000000
59 0.000000 0.000000 0.000000 -0.000074 -0.000012 -18.106865 0.000000
[Pelvis]
57 -2657.664795 913.126282 3104.489990 -110.828232 -76.444328 114.848541 4187.462402
58 -2679.474854 778.921753 3097.926270 -123.874405 -76.834045 129.419662 4169.347168
59 -2659.198975 643.903870 3089.228271 -136.925446 -76.449226 143.995682 4126.655273
[L_Hip]
57 5.766392 125.831482 872.656799 160.158691 -45.484894 122.312202 881.701050
58 5.766392 125.831482 872.656799 160.158691 -45.484894 122.312202 881.701050
59 5.766392 125.831482 872.656799 160.158691 -45.484905 122.312202 881.701050
[R_Hip]
57 5.765438 125.836372 -872.654907 38.087841 49.812687 125.703735 881.699829
58 5.765438 125.836372 -872.654907 38.087830 49.812672 125.703735 881.699829
59 5.765438 125.836372 -872.654907 38.087841 49.812687 125.703735 881.699829
[Rear_Leg01]
57 -192.298416 -925.602966 -0.001907 156.935684 14.999463 -152.359863 945.367432
58 -192.298416 -925.602966 -0.001907 155.021744 13.629954 -151.212082 945.367432
59 -192.298416 -925.602966 -0.001907 152.786362 11.856765 -149.821350 945.367432
[Spine1]
57 290.604584 5.007505 0.000477 1.101999 7.746853 13.316772 290.647736
58 290.604584 5.007505 0.000477 -1.479415 13.471573 12.222587 290.647736
59 290.604584 5.007505 0.000477 -3.976561 18.328850 10.560787 290.647736
[L_Leg01]
57 761.932007 -0.002384 -0.069261 36.057041 -21.704649 26.851507 761.932068
58 761.932007 -0.002384 -0.069261 40.141617 -21.972826 28.003143 761.932068
59 761.932007 -0.002384 -0.069261 45.058777 -22.255470 28.796854 761.932068
[L_Leg02]
57 1441.140503 -0.000954 -0.000715 10.643884 -0.156910 151.128784 1441.140503
58 1441.140503 -0.000954 -0.000715 10.720057 -0.172229 149.743469 1441.140503
59 1441.140503 -0.000954 -0.000715 10.751647 -0.183198 149.072098 1441.140503
[L_Leg03]
57 1686.963989 -0.000715 -0.000954 -0.043639 0.021102 122.233681 1686.963989
58 1686.963989 -0.000715 -0.000954 -0.043254 0.020353 122.161224 1686.963989
59 1686.963989 -0.000715 -0.000954 -0.042867 0.019605 122.088760 1686.963989
[L_Foot]
57 3041.570068 -30.715107 11.297464 -36.389809 18.939110 81.999588 3041.746094
58 3041.570068 -30.715107 11.297464 -37.976425 18.722832 80.952080 3041.746094
59 3041.570068 -30.715107 11.297464 -40.222351 18.462389 79.109772 3041.746094
[L_Toe1_01]
57 -188.216690 -224.732346 -21.137953 89.330788 -2.396120 -161.427643 293.899567
58 -188.216690 -224.732346 -21.137953 89.330788 -2.396120 -161.427643 293.899567
59 -188.216690 -224.732346 -21.137953 89.330788 -2.396121 -161.427643 293.899567
[L_Toe2_01]
57 200.746536 -219.926590 148.838394 -78.791496 -10.652695 -43.374847 332.896027
58 200.746536 -219.926590 148.838394 -78.791496 -10.652695 -43.374847 332.896027
59 200.746536 -219.926590 148.838394 -78.791496 -10.652695 -43.374847 332.896027
[L_Toe3_01]
57 188.832520 -219.859131 -191.078659 -109.186691 26.104870 -48.222927 347.140900
58 188.832520 -219.859131 -191.078659 -109.186691 26.104877 -48.222935 347.140900
59 188.832520 -219.859131 -191.078659 -109.186691 26.104874 -48.222931 347.140900
[planeAlignerLeft]
57 0.812531 -811.448792 -0.314951 0.000000 -90.000000 -90.001900 811.449280
58 0.812531 -811.448792 -0.314951 0.000000 -90.000000 -90.001900 811.449280
59 0.812531 -811.448792 -0.314951 0.000000 -90.000000 -90.001900 811.449280
[L_Toe1_02]
57 413.761139 0.000477 0.000000 0.000203 -25.410625 -0.000182 413.761139
58 413.761139 0.000477 0.000000 0.000203 -25.410625 -0.000182 413.761139
59 413.761139 0.000477 0.000000 0.000203 -25.410625 -0.000182 413.761139
[L_Toe1_03]
57 464.317322 0.000358 -0.000089 0.004933 62.473137 0.004933 464.317322
58 464.317322 0.000358 -0.000089 0.004933 62.473125 0.004933 464.317322
59 464.317322 0.000358 -0.000089 0.004933 62.473137 0.004933 464.317322
[L_Toe2_02]
57 342.235809 -0.000477 0.000238 -0.000101 -70.104240 0.000129 342.235809
58 342.235809 -0.000477 0.000238 -0.000101 -70.104240 0.000129 342.235809
59 342.235809 -0.000477 0.000238 -0.000101 -70.104240 0.000129 342.235809
[L_Toe2_03]
57 420.210846 -0.000715 0.000000 0.016997 82.081528 0.016997 420.210846
58 420.210846 -0.000715 0.000000 0.016997 82.081482 0.016997 420.210846
59 420.210846 -0.000715 0.000000 0.016997 82.081528 0.016997 420.210846
[L_Toe3_02]
57 329.270111 0.000954 0.000000 0.001178 -80.668365 0.001178 329.270111
58 329.270111 0.000954 0.000000 0.001178 -80.668365 0.001178 329.270111
59 329.270111 0.000954 0.000000 0.001178 -80.668365 0.001178 329.270111
[L_Toe3_03]
57 439.137451 -0.001907 0.000954 -179.996323 77.872643 -179.992813 439.137451
58 439.137451 -0.001907 0.000954 -179.996323 77.872643 -179.992813 439.137451
59 439.137451 -0.001907 0.000954 -179.996323 77.872643 -179.992813 439.137451
[planeLockWeightLeft]
57 -0.000954 0.000238 -0.000305 -0.011826 -0.004376 0.005620 0.001029
58 -0.000954 0.000238 -0.000305 -0.011826 -0.004376 0.005620 0.001029
59 -0.000954 0.000238 -0.000305 -0.011826 -0.004376 0.005620 0.001029
[R_Leg01]
57 761.455627 -0.001907 -0.000358 99.047813 -7.112583 8.435439 761.455688
58 761.455627 -0.001907 -0.000358 96.987663 -0.142759 12.621813 761.455688
59 761.455627 -0.001907 -0.000358 95.756302 4.857346 16.715807 761.455688
[R_Leg02]
57 1441.140625 0.000000 -0.000238 -1.858130 -0.458089 -133.520905 1441.140625
58 1441.140625 0.000000 -0.000238 -1.402667 -0.227421 -120.661102 1441.140625
59 1441.140625 0.000000 -0.000238 -1.032788 -0.086604 -110.557121 1441.140625
[R_Leg03]
57 1686.963989 0.000954 0.001431 0.091865 -0.049367 134.959457 1686.963989
58 1686.963989 0.000954 0.001431 0.080102 -0.041870 131.863220 1686.963989
59 1686.963989 0.000954 0.001431 0.067889 -0.035283 129.162140 1686.963989
[R_Foot]
57 3041.560059 -30.531288 -11.204481 64.052567 -22.334507 41.374516 3041.734131
58 3041.560059 -30.531288 -11.204481 66.431816 -22.916803 39.624489 3041.734131
59 3041.560059 -30.531288 -11.204481 67.051140 -23.283983 38.420708 3041.734131
[planeAlignerRight]
57 -0.635147 -812.270569 -0.364304 0.000000 -89.960434 -90.005180 812.270874
58 -0.635147 -812.270569 -0.364304 0.000000 -89.960434 -90.005180 812.270874
59 -0.635147 -812.270569 -0.364304 0.000000 -89.960434 -90.005180 812.270874
[R_Toe1_01]
57 -188.383347 -224.864899 21.052242 90.478722 3.231926 -161.378860 294.101532
58 -188.383347 -224.864899 21.052242 90.478714 3.231925 -161.378845 294.101532
59 -188.383347 -224.864899 21.052242 90.478722 3.231926 -161.378860 294.101532
[R_Toe2_01]
57 200.637817 -220.002121 -148.787384 -105.368950 18.813921 -49.808262 332.857574
58 200.637817 -220.002121 -148.787384 -105.368958 18.813929 -49.808266 332.857574
59 200.637817 -220.002121 -148.787384 -105.368958 18.813929 -49.808262 332.857574
[R_Toe3_01]
57 188.606735 -220.092957 191.126343 -76.041077 -6.322367 -46.892479 347.192566
58 188.606735 -220.092957 191.126343 -76.041084 -6.322366 -46.892483 347.192566
59 188.606735 -220.092957 191.126343 -76.041084 -6.322367 -46.892487 347.192566
[planeLockWeightRight]
57 -0.000477 0.000000 0.000000 -0.011823 -0.004379 -0.000027 0.000477
58 -0.000477 0.000000 0.000000 -0.011823 -0.004379 -0.000027 0.000477
59 -0.000477 0.000000 0.000000 -0.011823 -0.004379 -0.000027 0.000477
[R_Toe1_02]
57 413.762085 0.000477 -0.000119 0.001401 -23.743963 0.001401 413.762085
58 413.762085 0.000477 -0.000119 0.001401 -23.743965 0.001401 413.762085
59 413.762085 0.000477 -0.000119 0.001401 -23.743965 0.001401 413.762085
[R_Toe1_03]
57 464.317810 0.000000 0.001088 0.008919 74.877419 0.008919 464.317810
58 464.317810 0.000000 0.001088 0.008919 74.877419 0.008919 464.317810
59 464.317810 0.000000 0.001088 0.008919 74.877419 0.008919 464.317810
[R_Toe2_02]
57 342.234741 -0.000954 0.000238 0.001188 -72.307426 0.001188 342.234741
58 342.234741 -0.000954 0.000238 0.001188 -72.307358 0.001188 342.234741
59 342.234741 -0.000954 0.000238 0.001188 -72.307335 0.001188 342.234741
[R_Toe2_03]
57 420.210846 0.000715 -0.000268 0.028211 85.231323 0.028211 420.210846
58 420.210846 0.000715 -0.000268 0.028211 85.231323 0.028211 420.210846
59 420.210846 0.000715 -0.000268 0.028210 85.231239 0.028210 420.210846
[R_Toe3_02]
57 329.270355 -0.000477 -0.000954 0.001177 -80.843628 0.001177 329.270355
58 329.270355 -0.000477 -0.000954 0.001177 -80.843628 0.001177 329.270355
59 329.270355 -0.000477 -0.000954 0.001177 -80.843628 0.001177 329.270355
[R_Toe3_03]
57 439.137939 0.000238 0.001431 -179.996658 77.076515 -179.993134 439.137939
58 439.137939 0.000238 0.001431 -179.996658 77.076538 -179.993134 439.137939
59 439.137939 0.000238 0.001431 -179.996658 77.076630 -179.993134 439.137939
[Rear_Leg02]
57 1162.777710 -0.029802 0.005960 0.089669 0.033224 -112.445801 1162.777710
58 1162.777710 -0.029802 0.005960 0.087180 0.059648 -114.703957 1162.777710
59 1162.777710 -0.029802 0.005960 0.083710 0.068949 -118.044739 1162.777710
[Rear_Leg03]
57 607.192505 -0.013351 -0.073195 0.006548 -0.001871 60.110447 607.192505
58 607.192505 -0.013351 -0.073195 0.006533 -0.001923 61.015339 607.192505
59 607.192505 -0.013351 -0.073195 0.006510 -0.001998 62.334385 607.192505
[Rear_Leg04]
57 995.874512 -0.020504 -0.011921 -0.039370 -0.017930 50.301811 995.874573
58 995.874512 -0.020504 -0.011921 -0.039629 -0.017352 51.979523 995.874573
59 995.874512 -0.020504 -0.011921 -0.039990 -0.016502 54.424324 995.874573
[Rear_Foot]
57 3096.176270 -0.067472 -0.041425 0.000000 89.790642 -145.604538 3096.176270
58 3096.176270 -0.067472 -0.041425 0.000000 89.531868 -145.743454 3096.176270
59 3096.176270 -0.067472 -0.041425 0.000000 89.838081 -146.072815 3096.176270
[planeAlignerCenter]
57 0.350077 0.966311 -838.790894 0.000009 0.000003 -179.999985 838.791565
58 0.350077 0.966311 -838.790894 0.000009 0.000003 -179.999985 838.791565
59 0.350077 0.966311 -838.790894 0.000009 0.000003 -179.999985 838.791565
[Rear_Toe1_01]
57 0.653352 83.966492 -371.173737 0.292473 41.923977 90.411118 380.553192
58 0.653352 83.966492 -371.173737 0.292516 41.923943 90.411140 380.553192
59 0.653352 83.966492 -371.173737 0.292557 41.923908 90.411171 380.553192
[Rear_Toe2_01]
57 178.200760 -294.826019 -362.060547 -2.184059 34.543732 -64.361954 499.765686
58 178.200760 -294.826019 -362.060547 -2.184031 34.543697 -64.361931 499.765686
59 178.200760 -294.826019 -362.060547 -2.184002 34.543667 -64.361916 499.765686
[Rear_Toe3_01]
57 -153.359680 -308.780914 -362.060852 3.870841 33.514248 -112.318695 499.952881
58 -153.359680 -308.780914 -362.060852 3.870838 33.514248 -112.318695 499.952881
59 -153.359680 -308.780914 -362.060852 3.870836 33.514236 -112.318695 499.952881
[planeLockWeightCenter]
57 -0.000062 0.000238 0.000000 -0.011814 -0.004373 -0.000015 0.000246
58 -0.000062 0.000238 0.000000 -0.011814 -0.004373 -0.000015 0.000246
59 -0.000062 0.000238 0.000000 -0.011814 -0.004373 -0.000015 0.000246
[Rear_Toe1_02]
57 379.707825 0.194073 0.000477 -0.000242 -31.673500 0.006934 379.707855
58 379.707825 0.194073 0.000477 -0.000242 -31.673540 0.006934 379.707855
59 379.707825 0.194073 0.000477 -0.000242 -31.673590 0.006934 379.707855
[Rear_Toe1_03]
57 500.129700 0.165701 0.000119 -0.000106 51.875561 0.007293 500.129761
58 500.129700 0.165701 0.000119 -0.000106 51.875706 0.007293 500.129761
59 500.129700 0.165701 0.000119 -0.000106 51.875835 0.007293 500.129761
[Rear_Toe2_02]
57 340.494507 0.000238 -0.000954 0.001192 -69.854523 0.001192 340.494507
58 340.494507 0.000238 -0.000954 0.001192 -69.854523 0.001192 340.494507
59 340.494507 0.000238 -0.000954 0.001192 -69.854523 0.001192 340.494507
[Rear_Toe2_03]
57 433.103577 0.000000 0.000238 0.006694 69.804291 0.006694 433.103546
58 433.103577 0.000000 0.000238 0.006694 69.804291 0.006694 433.103546
59 433.103577 0.000000 0.000238 0.006694 69.804291 0.006694 433.103546
[Rear_Toe3_02]
57 340.494141 -0.000358 -0.000477 0.008285 -67.268761 -0.009458 340.494171
58 340.494141 -0.000358 -0.000477 0.008285 -67.268761 -0.009458 340.494171
59 340.494141 -0.000358 -0.000477 0.008285 -67.268761 -0.009458 340.494171
[Rear_Toe3_03]
57 433.103577 0.001431 -0.000238 -0.000971 65.949371 -0.004546 433.103546
58 433.103577 0.001431 -0.000238 -0.000971 65.949425 -0.004546 433.103546
59 433.103577 0.001431 -0.000238 -0.000971 65.949463 -0.004546 433.103546
[Back_Bone]
57 1312.175781 -701.934692 0.000954 0.000023 -0.000007 -85.606667 1488.125488
58 1312.175781 -701.934692 0.000954 0.000023 -0.000007 -85.606667 1488.125488
59 1312.175781 -701.934692 0.000954 0.000023 -0.000007 -85.606667 1488.125488
[Head]
57 1406.159424 809.709290 0.001431 -0.000908 -1.477282 11.537008 1622.625488
58 1406.159424 809.709290 0.001431 -0.000674 -1.477515 9.782080 1622.625488
59 1406.159424 809.709290 0.001431 -0.001265 -1.477666 7.905682 1622.625488
[Motor_Bone]
57 1158.364380 -417.834747 0.000477 -7.096247 -2.571987 -105.294418 1231.419434
58 1158.364380 -417.834747 0.000477 -6.762692 -2.489730 -105.358063 1231.419434
59 1158.364380 -417.834747 0.000477 -6.429240 -2.407101 -105.421196 1231.419434
[Ping_Mechanism]
57 1234.396973 -438.755432 -2.562474 0.000103 -0.000053 82.120995 1310.056763
58 1234.368164 -438.121368 -3.766728 0.000103 -0.000053 82.120995 1309.820313
59 1234.339355 -437.487366 -4.970978 0.000103 -0.000053 82.120995 1309.585205
[BN_LookIK]
57 193.241119 1380.371704 -0.002861 0.000000 89.965736 -31.038179 1393.832153
58 193.241119 1380.371704 -0.002861 0.000000 89.965736 -31.038179 1393.832153
59 193.241119 1380.371704 -0.002861 0.000000 89.965736 -31.038179 1393.832153
[bottomMouth]
57 -435.092926 615.759399 -0.000954 -0.000022 0.000016 73.527184 753.966492
58 -435.092926 615.759399 -0.000954 -0.000022 0.000016 73.527184 753.966492
59 -435.092926 615.759399 -0.000954 -0.000022 0.000016 73.527184 753.966492
[L_Mouth01]
57 554.440979 7.658243 838.222046 150.204178 23.759130 109.605339 1005.027161
58 554.440979 7.658243 838.222046 150.204178 23.759130 109.605339 1005.027161
59 554.440979 7.658243 838.222046 150.204178 23.759130 109.605339 1005.027161
[L_mouthFront]
57 551.629089 934.514771 339.150421 0.000081 2.804060 79.119301 1136.941284
58 551.629089 934.514771 339.150421 0.000081 2.804060 79.119301 1136.941284
59 551.629089 934.514771 339.150421 0.000081 2.804060 79.119301 1136.941284
[mouthGun]
57 55.332661 1627.420898 0.000000 0.000023 0.000009 -11.038128 1628.361328
58 55.332661 1627.420898 0.000000 0.000023 0.000009 -11.038128 1628.361328
59 55.332661 1627.420898 0.000000 0.000023 0.000009 -11.038128 1628.361328
[R_Mouth01]
57 554.442383 7.659197 -838.223938 29.795891 -23.759109 109.605331 1005.029541
58 554.442383 7.659197 -838.223938 29.795891 -23.759109 109.605331 1005.029541
59 554.442383 7.659197 -838.223938 29.795891 -23.759109 109.605331 1005.029541
[R_mouthFront]
57 551.629089 934.514282 -339.151367 0.000029 -2.803930 79.119133 1136.941162
58 551.629089 934.514282 -339.151367 0.000029 -2.803930 79.119133 1136.941162
59 551.629089 934.514282 -339.151367 0.000029 -2.803930 79.119133 1136.941162
[TopMouth]
57 461.269867 -56.106091 -0.008583 -0.000059 -0.000268 92.025169 464.669525
58 461.269867 -56.106091 -0.008583 -0.000059 -0.000268 92.025169 464.669525
59 461.269867 -56.106091 -0.008583 -0.000059 -0.000268 92.025169 464.669525
[weapon_bone]
57 -987.239868 1448.372803 0.001431 0.000000 89.965736 -31.038221 1752.833740
58 -987.239868 1448.372803 0.001431 0.000000 89.965736 -31.038221 1752.833740
59 -987.239868 1448.372803 0.001431 0.000000 89.965736 -31.038221 1752.833740
